<svg xmlns="http://www.w3.org/2000/svg" viewBox="0 0 100 100"><g transform="translate(18 27)"><path fill="#fdd3b0" d="M11 19.5v44h16v-23a5 5 0 0 1 10 0v23h16v-44H11z"/><path fill="#fed9b3" d="M16 7.5h32v9H16z"/><path fill="#f0b895" d="M37.5 12h-11a.5.5 0 0 0-.5.5v2a.5.5 0 0 0 .5.5h1a.5.5 0 0 1 .5.5.5.5 0 0 0 .5.5h7a.5.5 0 0 0 .5-.5.5.5 0 0 1 .5-.5h1a.5.5 0 0 0 .5-.5v-2a.5.5 0 0 0-.5-.5Z"/><circle cx="22" cy="14.02" r="2" fill="#f0b895"/><circle cx="42" cy="14.02" r="2" fill="#f0b895"/><path fill="#fed9b3" d="M22 5.5h20v2H22zM13 16.5h38v3H13z"/><path fill="#fcf2e8" d="M51 19.5h2v44h-2z"/><path fill="#fed9b3" d="M28 .5h8v2h-8z"/><path fill="#fcf2e8" d="M21 29.5h2v34h-2z"/><path fill="#f0b895" d="M11 29.5h12V31H11zM22.875 32.5v31H27v-23a5 5 0 0 1 10 0v23h4.125v-31h-18.25zM41 29.5h12V31H41z"/><path fill="#bc856e" d="M32 33.5a7 7 0 0 0-7 7h2a5 5 0 0 1 10 0h2a7 7 0 0 0-7-7z"/><path fill="#594454" d="M39.5 41h-3v-.5c0-2.481-2.019-4.5-4.5-4.5a4.505 4.505 0 0 0-4.5 4.5v.5h-3v-.5c0-4.136 3.364-7.5 7.5-7.5s7.5 3.364 7.5 7.5v.5zm-2.022-1h1.004c-.257-3.352-3.065-6-6.481-6a6.508 6.508 0 0 0-6.481 6h1.004c.253-2.8 2.613-5 5.478-5 2.865 0 5.223 2.2 5.476 5z"/><path fill="#bc856e" d="M23 32.5h18V34H23z"/><path fill="#bc856e" d="M39.5 32.5h2v31h-2zM22.5 32.5h2v31h-2z"/><path fill="#dea683" d="M15 42.5h4v3h-4z"/><path fill="#f0b895" d="M13 40.5h8v2h-8zM43 40.5h8v2h-8zM11.083 50.5H21v2h-9.917zM41.125 50.5H51v2h-9.875z"/><path fill="#dea683" d="M45 42.5h4v3h-4zM36 13.5h2v-3H26v3h2v1h8z"/><circle cx="22" cy="12.52" r="2" fill="#dea683"/><circle cx="17" cy="33" r="1.5" fill="#dea683"/><circle cx="47" cy="33" r="1.5" fill="#dea683"/><circle cx="42" cy="12.52" r="2" fill="#dea683"/><path fill="#dea683" d="M45 60.5h4v3h-4z"/><path fill="#fcf2e8" d="M49 16.5h2v3h-2zM46 7.5h2v9h-2zM40 5.5h2v2h-2zM34 .5h2v2h-2z"/><path fill="#fed9b3" d="M39 5.5H25a3 3 0 0 1 3-3h8a3 3 0 0 1 3 3z"/><path fill="#594454" d="M39.5 6h-15v-.5C24.5 3.57 26.07 2 28 2h8c1.93 0 3.5 1.57 3.5 3.5V6zM25.55 5h12.9A2.504 2.504 0 0 0 36 3h-8c-1.207 0-2.218.86-2.45 2z"/><path fill="#fcf2e8" d="M36 2.5h-2a3 3 0 0 1 3 3h2a3 3 0 0 0-3-3z"/><path fill="#594454" d="M53 64H11a.5.5 0 0 1-.5-.5v-44a.5.5 0 0 1 .5-.5h42a.5.5 0 0 1 .5.5v44a.5.5 0 0 1-.5.5zm-41.5-1h41V20h-41v43z"/><path fill="#594454" d="M51 20H13a.5.5 0 0 1-.5-.5v-3a.5.5 0 0 1 .5-.5h38a.5.5 0 0 1 .5.5v3a.5.5 0 0 1-.5.5zm-37.5-1h37v-2h-37v2z"/><path fill="#594454" d="M48 17H16a.5.5 0 0 1-.5-.5v-9A.5.5 0 0 1 16 7h32a.5.5 0 0 1 .5.5v9a.5.5 0 0 1-.5.5zm-31.5-1h31V8h-31v8z"/><path fill="#594454" d="M42 8H22a.5.5 0 0 1-.5-.5v-2A.5.5 0 0 1 22 5h20a.5.5 0 0 1 .5.5v2a.5.5 0 0 1-.5.5zM22.5 7h19V6h-19v1zM36 15h-8a.5.5 0 0 1-.5-.5V14H26a.5.5 0 0 1-.5-.5v-3a.5.5 0 0 1 .5-.5h12a.5.5 0 0 1 .5.5v3a.5.5 0 0 1-.5.5h-1.5v.5a.5.5 0 0 1-.5.5zm-7.5-1h7v-.5a.5.5 0 0 1 .5-.5h1.5v-2h-11v2H28a.5.5 0 0 1 .5.5v.5z"/><path fill="#594454" d="M39.5 6h-15v-.5C24.5 3.57 26.07 2 28 2h8c1.93 0 3.5 1.57 3.5 3.5V6zM25.55 5h12.9A2.504 2.504 0 0 0 36 3h-8c-1.207 0-2.218.86-2.45 2z"/><path fill="#594454" d="M36 3h-8a.5.5 0 0 1-.5-.5v-2A.5.5 0 0 1 28 0h8a.5.5 0 0 1 .5.5v2a.5.5 0 0 1-.5.5zm-7.5-1h7V1h-7v1zM39 41a.5.5 0 0 1-.5-.5c0-3.584-2.916-6.5-6.5-6.5a6.508 6.508 0 0 0-6.5 6.5.5.5 0 0 1-1 0c0-4.136 3.364-7.5 7.5-7.5s7.5 3.364 7.5 7.5a.5.5 0 0 1-.5.5zm14 23H41a.5.5 0 0 1-.5-.5v-34a.5.5 0 0 1 .5-.5h12a.5.5 0 0 1 .5.5v34a.5.5 0 0 1-.5.5zm-11.5-1h11V30h-11v33zM23 64H11a.5.5 0 0 1-.5-.5v-34a.5.5 0 0 1 .5-.5h12a.5.5 0 0 1 .5.5v34a.5.5 0 0 1-.5.5zm-11.5-1h11V30h-11v33z"/><path fill="#dea683" d="M13 36.5h2.5v2H13zM18.5 36.5H21v2h-2.5zM43 36.5h2.5v2H43zM48.5 36.5H51v2h-2.5z"/><path fill="#594454" d="M21 64h-8a.5.5 0 0 1-.5-.5v-27a.5.5 0 0 1 .5-.5h8a.5.5 0 0 1 .5.5v27a.5.5 0 0 1-.5.5zm-7.5-1h7V37h-7v26z"/><path fill="#594454" d="M18.5 39h-3a.5.5 0 0 1-.5-.5v-2a.5.5 0 0 1 .5-.5h3a.5.5 0 0 1 .5.5v2a.5.5 0 0 1-.5.5zM16 38h2v-1h-2v1zm3 8h-4a.5.5 0 0 1-.5-.5v-3a.5.5 0 0 1 .5-.5h4a.5.5 0 0 1 .5.5v3a.5.5 0 0 1-.5.5zm-3.5-1h3v-2h-3v2zm7 16H10a.5.5 0 0 1 0-1h12.5a.5.5 0 0 1 0 1z"/><path fill="#594454" d="M22.5 43H11a.5.5 0 0 1 0-1h11.5a.5.5 0 0 1 0 1zM21 39h-8a.5.5 0 0 1 0-1h8a.5.5 0 0 1 0 1zm27.5 0h-3a.5.5 0 0 1-.5-.5v-2a.5.5 0 0 1 .5-.5h3a.5.5 0 0 1 .5.5v2a.5.5 0 0 1-.5.5zM46 38h2v-1h-2v1z"/><path fill="#594454" d="M51 39h-8a.5.5 0 0 1 0-1h8a.5.5 0 0 1 0 1zM22 15.021a2.502 2.502 0 0 1-2.5-2.5c0-1.379 1.121-2.5 2.5-2.5s2.5 1.121 2.5 2.5-1.121 2.5-2.5 2.5zm0-4c-.827 0-1.5.673-1.5 1.5s.673 1.5 1.5 1.5 1.5-.673 1.5-1.5-.673-1.5-1.5-1.5zM17 35c-1.103 0-2-.897-2-2s.897-2 2-2 2 .897 2 2-.897 2-2 2zm0-3a1 1 0 1 0 0 2 1 1 0 0 0 0-2z"/><path fill="#594454" d="M51 64h-8a.5.5 0 0 1-.5-.5v-27a.5.5 0 0 1 .5-.5h8a.5.5 0 0 1 .5.5v27a.5.5 0 0 1-.5.5zm-7.5-1h7V37h-7v26z"/><path fill="#594454" d="M49 64h-4a.5.5 0 0 1-.5-.5v-3a.5.5 0 0 1 .5-.5h4a.5.5 0 0 1 .5.5v3a.5.5 0 0 1-.5.5zm-3.5-1h3v-2h-3v2zM49 46h-4a.5.5 0 0 1-.5-.5v-3a.5.5 0 0 1 .5-.5h4a.5.5 0 0 1 .5.5v3a.5.5 0 0 1-.5.5zm-3.5-1h3v-2h-3v2z"/><path fill="#594454" d="M54 61H41.25a.5.5 0 0 1 0-1H54a.5.5 0 0 1 0 1zm-1.5-18H41a.5.5 0 0 1 0-1h11.5a.5.5 0 0 1 0 1zM47 35c-1.103 0-2-.897-2-2s.897-2 2-2 2 .897 2 2-.897 2-2 2zm0-3a1 1 0 1 0 0 2 1 1 0 0 0 0-2zm-5-16.979a2.502 2.502 0 0 1-2.5-2.5c0-1.379 1.121-2.5 2.5-2.5s2.5 1.121 2.5 2.5-1.121 2.5-2.5 2.5zm0-4c-.827 0-1.5.673-1.5 1.5s.673 1.5 1.5 1.5 1.5-.673 1.5-1.5-.673-1.5-1.5-1.5z"/><path fill="#dea683" d="M8 23.5h48l-3 6H11z"/><path fill="#dea683" d="m55 25.5-45.999.002L11 29.5h42z"/><path fill="#bc856e" d="m9.001 25.502.75 1.5L54.25 27l.75-1.5z"/><path fill="#594454" d="M14 29.766a.5.5 0 0 1-.5-.5V25.5a.5.5 0 0 1 1 0v3.766a.5.5 0 0 1-.5.5zm-3 0a.5.5 0 0 1-.5-.5V25.5a.5.5 0 0 1 1 0v3.766a.5.5 0 0 1-.5.5zm6 0a.5.5 0 0 1-.5-.5V25.5a.5.5 0 0 1 1 0v3.766a.5.5 0 0 1-.5.5zm3 0a.5.5 0 0 1-.5-.5V25.5a.5.5 0 0 1 1 0v3.766a.5.5 0 0 1-.5.5zm3 0a.5.5 0 0 1-.5-.5V25.5a.5.5 0 0 1 1 0v3.766a.5.5 0 0 1-.5.5zm3 0a.5.5 0 0 1-.5-.5V25.5a.5.5 0 0 1 1 0v3.766a.5.5 0 0 1-.5.5zm3 0a.5.5 0 0 1-.5-.5V25.5a.5.5 0 0 1 1 0v3.766a.5.5 0 0 1-.5.5zm3 0a.5.5 0 0 1-.5-.5V25.5a.5.5 0 0 1 1 0v3.766a.5.5 0 0 1-.5.5zm3 0a.5.5 0 0 1-.5-.5V25.5a.5.5 0 0 1 1 0v3.766a.5.5 0 0 1-.5.5zm3 0a.5.5 0 0 1-.5-.5V25.5a.5.5 0 0 1 1 0v3.766a.5.5 0 0 1-.5.5zm3 0a.5.5 0 0 1-.5-.5V25.5a.5.5 0 0 1 1 0v3.766a.5.5 0 0 1-.5.5zm3 0a.5.5 0 0 1-.5-.5V25.5a.5.5 0 0 1 1 0v3.766a.5.5 0 0 1-.5.5zm3 0a.5.5 0 0 1-.5-.5V25.5a.5.5 0 0 1 1 0v3.766a.5.5 0 0 1-.5.5zm3 0a.5.5 0 0 1-.5-.5V25.5a.5.5 0 0 1 1 0v3.766a.5.5 0 0 1-.5.5zm3 0a.5.5 0 0 1-.5-.5V25.5a.5.5 0 0 1 1 0v3.766a.5.5 0 0 1-.5.5z"/><g fill="#fdd3b0"><path d="m56 23.5-1 2-45.999.002L8 23.5z"/><path d="M8.692 26.002 7.191 23h49.617l-1.5 3-46.616.002zM8.809 24l.501 1.002L54.691 25l.5-1H8.809z"/></g><path fill="#594454" d="M54.5 26H9.29a.5.5 0 0 1 0-1H54.5a.5.5 0 0 1 0 1z"/><path fill="#594454" d="M53 30H11a.5.5 0 0 1-.447-.276l-3-6A.502.502 0 0 1 8 23h48a.498.498 0 0 1 .447.723l-3 6A.5.5 0 0 1 53 30Zm-41.691-1h41.383l2.5-5H8.809l2.5 5z"/><path fill="#dea683" d="M9.063 47.5H25l-2 3H11.063zM39.063 47.5H55l-2 3H41.063z"/><path fill="#eee1cc" d="m53 50.5 2-3h-2l-2 3zM23 50.5l2-3h-2l-2 3z"/><path fill="#594454" d="M23 51H11.063a.501.501 0 0 1-.416-.223l-2-3A.499.499 0 0 1 9.063 47H25a.5.5 0 0 1 .416.778l-2 3A.503.503 0 0 1 23 51zm-11.67-1h11.402l1.333-2H9.997l1.333 2zM53 51H41.063a.501.501 0 0 1-.416-.223l-2-3a.499.499 0 0 1 .416-.777H55a.5.5 0 0 1 .416.778l-2 3A.503.503 0 0 1 53 51zm-11.67-1h11.402l1.333-2H39.997l1.333 2z"/><path fill="#dea683" d="M15 60.5h4v3h-4z"/><path fill="#594454" d="M19 64h-4a.5.5 0 0 1-.5-.5v-3a.5.5 0 0 1 .5-.5h4a.5.5 0 0 1 .5.5v3a.5.5 0 0 1-.5.5zm-3.5-1h3v-2h-3v2zM37 64H27a.5.5 0 0 1-.5-.5v-23c0-3.032 2.468-5.5 5.5-5.5s5.5 2.468 5.5 5.5v23a.5.5 0 0 1-.5.5zm-9.5-1h9V40.5c0-2.481-2.019-4.5-4.5-4.5a4.505 4.505 0 0 0-4.5 4.5V63z"/><path fill="#594454" d="M28 48h-3.75a.5.5 0 0 1 0-1H28a.5.5 0 0 1 0 1zm11.75 0H36a.5.5 0 0 1 0-1h3.75a.5.5 0 0 1 0 1zM28 41H10a.5.5 0 0 1 0-1h18a.5.5 0 0 1 0 1zm26 0H36a.5.5 0 0 1 0-1h18a.5.5 0 0 1 0 1z"/><path fill="#fdd3b0" d="M33 32.5h8v-3H23v3h8v4h2z"/><path fill="#f0b895" d="M23 29.5h18V31H23z"/><path fill="#594454" d="M33 37h-2a.5.5 0 0 1-.5-.5V33H23a.5.5 0 0 1-.5-.5v-3a.5.5 0 0 1 .5-.5h18a.5.5 0 0 1 .5.5v3a.5.5 0 0 1-.5.5h-7.5v3.5a.5.5 0 0 1-.5.5zm-1.5-1h1v-3.5a.5.5 0 0 1 .5-.5h7.5v-2h-17v2H31a.5.5 0 0 1 .5.5V36zM57.5 64h-51a.5.5 0 0 1 0-1h51a.5.5 0 0 1 0 1z"/></g></svg>